<?xml version="1.0" encoding="utf-8"?>
<!-- Generated by IcoMoon.io -->
<!DOCTYPE svg PUBLIC "-//W3C//DTD SVG 1.1//EN" "http://www.w3.org/Graphics/SVG/1.1/DTD/svg11.dtd">
<svg version="1.1" xmlns="http://www.w3.org/2000/svg" xmlns:xlink="http://www.w3.org/1999/xlink" width="15" height="15" viewBox="0 0 15 15">
<path fill="#fff" d="M11.525 2.15l-7.775 7.775v-3.362c0-0.518-0.42-0.938-0.938-0.938s-0.938 0.42-0.938 0.938v5.625c0 0.379 0.228 0.721 0.579 0.866 0.116 0.048 0.238 0.071 0.359 0.071v0.001l5.625-0c0.518 0 0.938-0.42 0.938-0.937s-0.42-0.938-0.938-0.938h-3.362l7.775-7.775c0.183-0.183 0.275-0.423 0.275-0.663s-0.092-0.48-0.275-0.663c-0.366-0.366-0.96-0.366-1.326 0v0z"></path>
</svg>
