<?xml version="1.0" encoding="utf-8"?>
<!-- Generated by IcoMoon.io -->
<!DOCTYPE svg PUBLIC "-//W3C//DTD SVG 1.1//EN" "http://www.w3.org/Graphics/SVG/1.1/DTD/svg11.dtd">
<svg version="1.1" xmlns="http://www.w3.org/2000/svg" xmlns:xlink="http://www.w3.org/1999/xlink" width="15" height="15" viewBox="0 0 15 15">
<path fill="#fff" d="M12.85 11.525l-7.775-7.775h3.362c0.518 0 0.938-0.42 0.938-0.938s-0.42-0.938-0.938-0.938h-5.625c-0.379 0-0.721 0.228-0.866 0.579-0.048 0.116-0.071 0.238-0.071 0.359h-0v5.625c0 0.518 0.42 0.938 0.938 0.938s0.937-0.42 0.937-0.938v-3.362l7.775 7.775c0.183 0.183 0.423 0.275 0.663 0.275s0.48-0.092 0.663-0.275c0.366-0.366 0.366-0.96 0-1.326z"></path>
</svg>
