<?xml version="1.0" encoding="utf-8"?>
<!-- Generated by IcoMoon.io -->
<!DOCTYPE svg PUBLIC "-//W3C//DTD SVG 1.1//EN" "http://www.w3.org/Graphics/SVG/1.1/DTD/svg11.dtd">
<svg version="1.1" xmlns="http://www.w3.org/2000/svg" xmlns:xlink="http://www.w3.org/1999/xlink" width="15" height="15" viewBox="0 0 15 15">
<path fill="#fff" d="M9.753 4.791l-0.951-0.951-4.758 4.757c-0.788 0.788-0.788 2.066 0 2.854s2.066 0.788 2.855 0l5.71-5.709c1.314-1.313 1.314-3.443 0-4.757s-3.444-1.314-4.758 0l-5.995 5.994c-0.004 0.004-0.009 0.008-0.013 0.012-1.833 1.832-1.833 4.803 0 6.634s4.803 1.832 6.636 0c0.004-0.004 0.008-0.008 0.012-0.013l0 0 4.092-4.091-0.952-0.951-4.092 4.091c-0.004 0.004-0.008 0.008-0.012 0.012-1.305 1.305-3.427 1.305-4.733 0s-1.305-3.427 0-4.731c0.004-0.004 0.009-0.009 0.013-0.012l-0.001-0.001 5.995-5.994c0.787-0.787 2.068-0.787 2.855 0s0.787 2.068 0 2.854l-5.71 5.708c-0.263 0.263-0.689 0.263-0.952 0s-0.262-0.689 0-0.951l4.758-4.758z"></path>
</svg>
