<?xml version="1.0" encoding="utf-8"?>
<!-- Generated by IcoMoon.io -->
<!DOCTYPE svg PUBLIC "-//W3C//DTD SVG 1.1//EN" "http://www.w3.org/Graphics/SVG/1.1/DTD/svg11.dtd">
<svg version="1.1" xmlns="http://www.w3.org/2000/svg" xmlns:xlink="http://www.w3.org/1999/xlink" width="15" height="15" viewBox="0 0 15 15">
<path fill="#fff" d="M7.5 0c-4.142 0-7.5 3.358-7.5 7.5s3.358 7.5 7.5 7.5 7.5-3.358 7.5-7.5-3.358-7.5-7.5-7.5zM7.5 13.594c-3.365 0-6.094-2.728-6.094-6.094s2.728-6.094 6.094-6.094 6.094 2.728 6.094 6.094-2.728 6.094-6.094 6.094z"></path>
<path fill="#fff" d="M9.844 3.75l-2.344 2.344-2.344-2.344-1.406 1.406 2.344 2.344-2.344 2.344 1.406 1.406 2.344-2.344 2.344 2.344 1.406-1.406-2.344-2.344 2.344-2.344z"></path>
</svg>
