<?xml version="1.0" encoding="utf-8"?>
<!-- Generated by IcoMoon.io -->
<!DOCTYPE svg PUBLIC "-//W3C//DTD SVG 1.1//EN" "http://www.w3.org/Graphics/SVG/1.1/DTD/svg11.dtd">
<svg version="1.1" xmlns="http://www.w3.org/2000/svg" xmlns:xlink="http://www.w3.org/1999/xlink" width="15" height="15" viewBox="0 0 15 15">
<path fill="#fff" d="M15 3.316c-0.551 0.246-1.146 0.41-1.767 0.483 0.636-0.381 1.122-0.984 1.354-1.702-0.595 0.352-1.254 0.609-1.954 0.747-0.563-0.598-1.362-0.97-2.247-0.97-1.699 0-3.076 1.377-3.076 3.076 0 0.24 0.026 0.475 0.079 0.7-2.558-0.129-4.825-1.354-6.343-3.217-0.264 0.454-0.416 0.984-0.416 1.547 0 1.066 0.542 2.010 1.368 2.561-0.504-0.015-0.979-0.155-1.395-0.384 0 0.012 0 0.026 0 0.038 0 1.491 1.061 2.736 2.47 3.018-0.258 0.070-0.53 0.108-0.812 0.108-0.199 0-0.39-0.021-0.58-0.056 0.393 1.222 1.529 2.112 2.874 2.139-1.055 0.826-2.379 1.318-3.823 1.318-0.249 0-0.492-0.015-0.735-0.044 1.365 0.876 2.982 1.383 4.72 1.383 5.66 0 8.757-4.69 8.757-8.757 0-0.135-0.003-0.267-0.009-0.398 0.601-0.431 1.122-0.973 1.535-1.591z"></path>
</svg>
