<?xml version="1.0" encoding="utf-8"?>
<!-- Generated by IcoMoon.io -->
<!DOCTYPE svg PUBLIC "-//W3C//DTD SVG 1.1//EN" "http://www.w3.org/Graphics/SVG/1.1/DTD/svg11.dtd">
<svg version="1.1" xmlns="http://www.w3.org/2000/svg" xmlns:xlink="http://www.w3.org/1999/xlink" width="15" height="15" viewBox="0 0 15 15">
<path fill="#fff" d="M1.875 7.5c0 2.168 1.294 4.043 3.17 4.93l-2.683-7.16c-0.312 0.681-0.487 1.435-0.487 2.23zM11.297 7.224c0-0.677-0.25-1.146-0.464-1.511-0.285-0.451-0.553-0.833-0.553-1.285 0-0.504 0.392-0.972 0.945-0.972 0.025 0 0.049 0.003 0.073 0.004-1.001-0.893-2.334-1.438-3.798-1.438-1.965 0-3.694 0.982-4.7 2.469 0.132 0.004 0.256 0.007 0.362 0.007 0.588 0 1.499-0.070 1.499-0.070 0.303-0.017 0.339 0.417 0.036 0.451 0 0-0.305 0.035-0.644 0.052l2.048 5.934 1.231-3.596-0.876-2.339c-0.303-0.017-0.59-0.052-0.59-0.052-0.303-0.017-0.268-0.469 0.036-0.451 0 0 0.929 0.070 1.481 0.070 0.588 0 1.499-0.070 1.499-0.070 0.303-0.017 0.339 0.417 0.036 0.451 0 0-0.305 0.035-0.644 0.052l2.033 5.889 0.561-1.826c0.243-0.758 0.428-1.302 0.428-1.771zM7.599 7.979l-1.688 4.776c0.504 0.144 1.037 0.223 1.589 0.223 0.655 0 1.283-0.11 1.868-0.311-0.015-0.023-0.029-0.048-0.040-0.075l-1.729-4.613zM12.436 4.872c0.024 0.174 0.038 0.362 0.038 0.563 0 0.556-0.107 1.181-0.428 1.962l-1.718 4.838c1.672-0.95 2.797-2.714 2.797-4.735 0-0.953-0.25-1.848-0.689-2.628zM7.5 0c-4.142 0-7.5 3.358-7.5 7.5s3.358 7.5 7.5 7.5 7.5-3.358 7.5-7.5-3.358-7.5-7.5-7.5zM7.5 14.063c-3.624 0-6.563-2.938-6.563-6.563s2.938-6.563 6.563-6.563 6.563 2.938 6.563 6.563-2.938 6.563-6.563 6.563z"></path>
</svg>
