<?xml version="1.0" encoding="utf-8"?><!DOCTYPE svg PUBLIC "-//W3C//DTD SVG 1.1//EN" "http://www.w3.org/Graphics/SVG/1.1/DTD/svg11.dtd"><svg xmlns="http://www.w3.org/2000/svg" xmlns:xlink="http://www.w3.org/1999/xlink"><symbol viewBox="0 0 15 15" id="arrow-down-icon"><path d="M7.5 14.53l7.03-7.03h-4.218V0H4.687v7.5H.467z"/></symbol><symbol viewBox="0 0 15 15" id="arrow-down-left-icon"><path d="M10.78 15l-3.75-3.75L15 3.28 11.72 0 3.75 7.97 0 4.22V15h10.78z"/></symbol><symbol viewBox="0 0 15 15" id="arrow-down-left2-icon"><path d="M11.525 2.15L3.75 9.925V6.563a.938.938 0 0 0-1.876 0v5.625a.937.937 0 0 0 .938.937h5.625a.938.938 0 0 0 0-1.874H5.075l7.775-7.774a.935.935 0 0 0 0-1.326.938.938 0 0 0-1.326 0z"/></symbol><symbol viewBox="0 0 15 15" id="arrow-down-right-icon"><path d="M15 4.22l-3.75 3.75L3.28 0 0 3.28l7.97 7.97L4.22 15H15V4.22z"/></symbol><symbol viewBox="0 0 15 15" id="arrow-down-right2-icon"><path d="M2.15 3.475l7.775 7.775H6.563a.938.938 0 0 0 0 1.876h5.625a.937.937 0 0 0 .937-.938V6.563a.938.938 0 0 0-1.875 0v3.362L3.475 2.15a.935.935 0 0 0-1.326 0 .938.938 0 0 0 0 1.326z"/></symbol><symbol viewBox="0 0 15 15" id="arrow-down2-icon"><path d="M12.85 9.1l-4.688 4.688a.938.938 0 0 1-1.326 0L2.148 9.1a.938.938 0 0 1 1.326-1.326L6.56 10.86V1.875a.938.938 0 0 1 1.877 0v8.987l3.087-3.086a.935.935 0 0 1 1.326 0 .938.938 0 0 1 0 1.326z"/></symbol><symbol viewBox="0 0 15 15" id="arrow-left-icon"><path d="M.47 7.5l7.03 7.03v-4.218H15V4.687H7.5V.467z"/></symbol><symbol viewBox="0 0 15 15" id="arrow-left2-icon"><path d="M5.9 12.85L1.212 8.162a.938.938 0 0 1 0-1.326L5.9 2.148a.938.938 0 0 1 1.326 1.326L4.14 6.56h8.986a.938.938 0 0 1 0 1.877H4.14l3.086 3.087a.935.935 0 0 1 0 1.326.938.938 0 0 1-1.326 0z"/></symbol><symbol viewBox="0 0 15 15" id="arrow-right-icon"><path d="M14.53 7.5L7.5.47v4.218H0v5.625h7.5v4.22z"/></symbol><symbol viewBox="0 0 15 15" id="arrow-right2-icon"><path d="M9.1 12.85l4.688-4.688a.938.938 0 0 0 0-1.326L9.1 2.148a.938.938 0 0 0-1.326 1.326L10.86 6.56H1.875a.938.938 0 0 0 0 1.877h8.987l-3.086 3.087a.935.935 0 0 0 0 1.326.938.938 0 0 0 1.326 0z"/></symbol><symbol viewBox="0 0 15 15" id="arrow-up-icon"><path d="M7.5.47L.47 7.5h4.218V15h5.625V7.5h4.22z"/></symbol><symbol viewBox="0 0 15 15" id="arrow-up-left-icon"><path d="M0 10.78l3.75-3.75L11.72 15 15 11.72 7.03 3.75 10.78 0H0v10.78z"/></symbol><symbol viewBox="0 0 15 15" id="arrow-up-left2-icon"><path d="M12.85 11.525L5.075 3.75h3.362a.938.938 0 0 0 0-1.876H2.812a.937.937 0 0 0-.937.938v5.625a.938.938 0 0 0 1.875 0V5.075l7.775 7.775a.935.935 0 0 0 1.326 0 .938.938 0 0 0 0-1.326z"/></symbol><symbol viewBox="0 0 15 15" id="arrow-up-right-icon"><path d="M4.22 0l3.75 3.75L0 11.72 3.28 15l7.97-7.97L15 10.78V0H4.22z"/></symbol><symbol viewBox="0 0 15 15" id="arrow-up-right2-icon"><path d="M3.475 12.85l7.775-7.775v3.362a.938.938 0 0 0 1.876 0V2.812a.937.937 0 0 0-.938-.937H6.563a.938.938 0 0 0 0 1.875h3.362L2.15 11.525a.935.935 0 0 0 0 1.326.938.938 0 0 0 1.326 0z"/></symbol><symbol viewBox="0 0 15 15" id="arrow-up2-icon"><path d="M12.85 5.9L8.162 1.212a.938.938 0 0 0-1.326 0L2.148 5.9a.938.938 0 0 0 1.326 1.326L6.56 4.14v8.986a.938.938 0 0 0 1.877 0V4.14l3.087 3.086a.935.935 0 0 0 1.326 0 .938.938 0 0 0 0-1.326z"/></symbol><symbol viewBox="0 0 15 15" id="attachment-icon"><path d="M9.753 4.79l-.95-.95-4.76 4.757A2.018 2.018 0 0 0 6.9 11.45l5.71-5.708A3.363 3.363 0 1 0 7.85.985L1.857 6.98l-.013.01c-1.833 1.833-1.833 4.804 0 6.635s4.803 1.832 6.636 0l.01-.013 4.093-4.09-.952-.952-4.09 4.09-.013.013c-1.305 1.305-3.427 1.305-4.733 0a3.347 3.347 0 0 1 .013-4.743L8.8 1.934c.788-.787 2.07-.787 2.856 0s.787 2.068 0 2.854l-5.71 5.707a.673.673 0 0 1-.952-.95l4.758-4.76z"/></symbol><symbol viewBox="0 0 15 15" id="backward-icon"><path d="M7.5 15a7.5 7.5 0 1 0 0-15 7.5 7.5 0 0 0 0 15zm0-13.594a6.094 6.094 0 1 1 0 12.188 6.094 6.094 0 0 1 0-12.188zm2.813 8.438L7.033 7.5l3.28-2.344zm-3.75 0L3.283 7.5l3.28-2.344z"/></symbol><symbol viewBox="0 0 15 15" id="backward2-icon"><path d="M8.438 2.344v4.688l4.688-4.688v10.313L8.438 7.97v4.687L3.282 7.5z"/></symbol><symbol viewBox="0 0 15 15" id="cancel-circle-icon"><path d="M7.5 0a7.5 7.5 0 1 0 0 15 7.5 7.5 0 0 0 0-15zm0 13.594a6.094 6.094 0 1 1 0-12.188 6.094 6.094 0 0 1 0 12.188z"/><path d="M9.844 3.75L7.5 6.094 5.156 3.75 3.75 5.156 6.094 7.5 3.75 9.844l1.406 1.406L7.5 8.906l2.344 2.344 1.406-1.406L8.906 7.5l2.344-2.344z"/></symbol><symbol viewBox="0 0 28 28" id="cursor-hair-icon"><path d="M13.5 1.5L18 6H9l4.5-4.5zM13 7h1v7h7v1h-7v7h-1v-7H6v-1h7V7zm9 3l4.5 4.5L22 19v-9zM9 23h9l-4.5 4.5L9 23zM.5 14.5L5 10v9L.5 14.5z"/></symbol><symbol viewBox="0 0 15 15" aria-labelledby="avfacebook-icon-desc avfacebook-icon-title" id="facebook-icon"><title id="avfacebook-icon-title">Facebook</title><desc id="avfacebook-icon-desc">Facebook logo</desc><path d="M8.906 2.813h2.344V0H8.906a3.285 3.285 0 0 0-3.28 3.28v1.407H3.75V7.5h1.875V15h2.813V7.5h2.344l.47-2.813H8.437V3.28c0-.253.215-.468.47-.468z"/></symbol><symbol viewBox="0 0 15 15" id="facebook2-icon"><path d="M13.594 0H1.406A1.41 1.41 0 0 0 0 1.406v12.188A1.41 1.41 0 0 0 1.406 15H7.5V8.437H5.625V6.562H7.5v-.938a2.818 2.818 0 0 1 2.813-2.813h1.875v1.876h-1.875a.94.94 0 0 0-.938.938v.938h2.813l-.47 1.875H9.376V15h4.22A1.41 1.41 0 0 0 15 13.594V1.406A1.41 1.41 0 0 0 13.594 0z"/></symbol><symbol viewBox="0 0 15 15" aria-labelledby="axmenu-icon-desc axmenu-icon-title" id="menu-icon"><title id="axmenu-icon-title">Menu</title><desc id="axmenu-icon-desc">A menu icon</desc><path d="M.938 2.813h13.125v2.813H.938zm0 3.75h13.125v2.813H.938zm0 3.75h13.125v2.813H.938z"/></symbol><symbol viewBox="0 0 21 15" id="menu2-icon"><path d="M0 2.813h13.125v2.813H0V2.813zm0 3.75h13.125v2.813H0V6.563zm0 3.75h13.125v2.813H0v-2.813zM14.53 8.438l2.814 2.813 2.813-2.812zM20.156 7.5l-2.813-2.813L14.53 7.5z"/></symbol><symbol viewBox="0 0 21 15" id="menu3-icon"><path d="M0 2.813h13.125v2.813H0V2.813zm0 3.75h13.125v2.813H0V6.563zm0 3.75h13.125v2.813H0v-2.813zM14.53 6.563l2.814 2.813 2.813-2.813z"/></symbol><symbol viewBox="0 0 21 15" id="menu4-icon"><path d="M0 2.813h13.125v2.813H0V2.813zm0 3.75h13.125v2.813H0V6.563zm0 3.75h13.125v2.813H0v-2.813zM14.53 9.375l2.814-2.813 2.813 2.813z"/></symbol><symbol viewBox="0 0 15 15" aria-labelledby="bbplay-icon-desc bbplay-icon-title" id="play-icon"><title id="bbplay-icon-title">Play</title><desc id="bbplay-icon-desc">Play icon</desc><path d="M14.373 2.345c-2.104-.302-4.43-.47-6.873-.47s-4.77.168-6.873.47C.224 3.923 0 5.667 0 7.5s.224 3.577.627 5.155c2.104.303 4.43.47 6.873.47s4.77-.168 6.873-.47C14.776 11.077 15 9.333 15 7.5s-.224-3.577-.627-5.155zm-8.748 7.968V4.688L10.312 7.5l-4.688 2.814z"/></symbol><symbol viewBox="0 0 15 15" id="play2-icon"><path d="M7.5 0a7.5 7.5 0 1 0 0 15 7.5 7.5 0 0 0 0-15zm0 13.594a6.094 6.094 0 1 1 0-12.188 6.094 6.094 0 0 1 0 12.188zM5.625 4.22L11.25 7.5l-5.625 3.28z"/></symbol><symbol viewBox="0 0 15 15" id="play3-icon"><path d="M2.813 1.875L12.188 7.5l-9.375 5.625z"/></symbol><symbol viewBox="0 0 15 15" aria-labelledby="betwitter-icon-desc betwitter-icon-title" id="twitter-icon"><title id="betwitter-icon-title">Twitter</title><desc id="betwitter-icon-desc">Twitter logo</desc><path d="M15 3.316a6.07 6.07 0 0 1-1.767.483 3.096 3.096 0 0 0 1.354-1.703 6.19 6.19 0 0 1-1.954.747 3.077 3.077 0 0 0-2.247-.97A3.076 3.076 0 0 0 7.39 5.65a8.736 8.736 0 0 1-6.344-3.217A3.072 3.072 0 0 0 .63 3.98c0 1.066.542 2.01 1.368 2.56a3.08 3.08 0 0 1-1.395-.383v.038a3.08 3.08 0 0 0 2.47 3.018 3.096 3.096 0 0 1-1.392.052 3.088 3.088 0 0 0 2.875 2.14 6.174 6.174 0 0 1-4.558 1.273 8.703 8.703 0 0 0 4.72 1.383c5.66 0 8.757-4.69 8.757-8.756 0-.135-.003-.267-.01-.398.602-.43 1.123-.973 1.536-1.59z"/></symbol><symbol viewBox="0 0 15 15" aria-labelledby="bfwordpress-icon-desc bfwordpress-icon-title" id="wordpress-icon"><title id="bfwordpress-icon-title">Wordpress</title><desc id="bfwordpress-icon-desc">Wordpress blog logo</desc><path d="M1.875 7.5c0 2.168 1.294 4.043 3.17 4.93L2.362 5.27a5.337 5.337 0 0 0-.487 2.23zm9.422-.276c0-.677-.25-1.146-.464-1.51-.285-.452-.553-.834-.553-1.286 0-.504.392-.972.945-.972.025 0 .05.003.073.004A5.688 5.688 0 0 0 7.5 2.022a5.66 5.66 0 0 0-4.7 2.47c.132.003.256.006.362.006.588 0 1.5-.07 1.5-.07.302-.017.338.417.035.45 0 0-.305.036-.644.053L6.1 10.866 7.333 7.27l-.876-2.34c-.303-.017-.59-.052-.59-.052-.303-.017-.268-.47.036-.45 0 0 .93.07 1.48.07.59 0 1.5-.07 1.5-.07.303-.018.34.416.036.45 0 0-.305.035-.644.052l2.033 5.89.56-1.827c.244-.758.43-1.302.43-1.77zM7.6 7.98l-1.69 4.775a5.776 5.776 0 0 0 3.458-.088.446.446 0 0 1-.04-.075L7.598 7.98zm4.836-3.108c.024.174.038.362.038.563 0 .556-.107 1.18-.428 1.962l-1.718 4.838C12 11.285 13.125 9.52 13.125 7.5c0-.953-.25-1.848-.69-2.628zM7.5 0a7.5 7.5 0 1 0 0 15 7.5 7.5 0 0 0 0-15zm0 14.063A6.563 6.563 0 1 1 7.5.937a6.563 6.563 0 0 1 0 13.126z"/></symbol><symbol viewBox="0 0 15 15" id="zoom-in-icon"><path d="M14.535 12.765l-3.553-3.022c-.367-.33-.76-.482-1.077-.468A5.624 5.624 0 1 0 0 5.625a5.624 5.624 0 0 0 9.275 4.28c-.015.317.137.71.468 1.077l3.022 3.553c.517.575 1.363.623 1.878.108s.467-1.36-.108-1.878zm-8.91-3.39a3.75 3.75 0 1 1 0-7.5 3.75 3.75 0 0 1 0 7.5zm.938-6.562H4.688v1.875H2.813v1.875h1.875v1.875h1.875V6.563h1.875V4.688H6.563z"/></symbol><symbol viewBox="0 0 15 15" id="zoom-out-icon"><path d="M14.535 12.765l-3.553-3.022c-.367-.33-.76-.482-1.077-.468A5.624 5.624 0 1 0 0 5.625a5.624 5.624 0 0 0 9.275 4.28c-.015.317.137.71.468 1.077l3.022 3.553c.517.575 1.363.623 1.878.108s.467-1.36-.108-1.878zm-8.91-3.39a3.75 3.75 0 1 1 0-7.5 3.75 3.75 0 0 1 0 7.5zM2.813 4.688h5.625v1.875H2.813z"/></symbol></svg>