<?xml version="1.0" encoding="utf-8"?><!DOCTYPE svg PUBLIC "-//W3C//DTD SVG 1.1//EN" "http://www.w3.org/Graphics/SVG/1.1/DTD/svg11.dtd"><svg xmlns="http://www.w3.org/2000/svg" xmlns:xlink="http://www.w3.org/1999/xlink"><symbol viewBox="0 0 15 15" aria-labelledby="afacebook-icon-desc afacebook-icon-title" id="facebook-icon"><title id="afacebook-icon-title">Facebook</title><desc id="afacebook-icon-desc">Facebook logo</desc><path d="M8.906 2.813h2.344V0H8.906a3.285 3.285 0 0 0-3.281 3.281v1.406H3.75V7.5h1.875V15h2.813V7.5h2.344l.469-2.813H8.438V3.281c0-.254.215-.469.469-.469z"/></symbol><symbol viewBox="0 0 15 15" aria-labelledby="bmenu-icon-desc bmenu-icon-title" id="menu-icon"><title id="bmenu-icon-title">Menu</title><desc id="bmenu-icon-desc">A menu icon</desc><path d="M.938 2.813h13.125v2.813H.938zm0 3.75h13.125v2.813H.938zm0 3.75h13.125v2.813H.938z"/></symbol><symbol viewBox="0 0 15 15" aria-labelledby="ctwitter-icon-desc ctwitter-icon-title" id="twitter-icon"><title id="ctwitter-icon-title">Twitter</title><desc id="ctwitter-icon-desc">Twitter logo</desc><path d="M15 3.316a6.07 6.07 0 0 1-1.767.483 3.096 3.096 0 0 0 1.354-1.702 6.189 6.189 0 0 1-1.954.747 3.077 3.077 0 0 0-2.247-.97A3.076 3.076 0 0 0 7.389 5.65a8.736 8.736 0 0 1-6.343-3.217A3.072 3.072 0 0 0 .63 3.98c0 1.066.542 2.01 1.368 2.561a3.08 3.08 0 0 1-1.395-.384v.038a3.08 3.08 0 0 0 2.47 3.018 3.096 3.096 0 0 1-1.392.052 3.088 3.088 0 0 0 2.874 2.139 6.174 6.174 0 0 1-4.558 1.274 8.703 8.703 0 0 0 4.72 1.383c5.66 0 8.757-4.69 8.757-8.757 0-.135-.003-.267-.009-.398A6.194 6.194 0 0 0 15 3.315z"/></symbol><symbol viewBox="0 0 15 15" aria-labelledby="dwordpress-icon-desc dwordpress-icon-title" id="wordpress-icon"><title id="dwordpress-icon-title">Wordpress</title><desc id="dwordpress-icon-desc">Wordpress blog logo</desc><path d="M1.875 7.5c0 2.168 1.294 4.043 3.17 4.93L2.362 5.27a5.337 5.337 0 0 0-.487 2.23zm9.422-.276c0-.677-.25-1.146-.464-1.511-.285-.451-.553-.833-.553-1.285 0-.504.392-.972.945-.972.025 0 .049.003.073.004A5.688 5.688 0 0 0 7.5 2.022a5.66 5.66 0 0 0-4.7 2.469c.132.004.256.007.362.007.588 0 1.499-.07 1.499-.07.303-.017.339.417.036.451 0 0-.305.035-.644.052l2.048 5.934 1.231-3.596-.876-2.339c-.303-.017-.59-.052-.59-.052-.303-.017-.268-.469.036-.451 0 0 .929.07 1.481.07.588 0 1.499-.07 1.499-.07.303-.017.339.417.036.451 0 0-.305.035-.644.052l2.033 5.889.561-1.826c.243-.758.428-1.302.428-1.771zm-3.698.755l-1.688 4.776a5.776 5.776 0 0 0 3.457-.088.446.446 0 0 1-.04-.075L7.599 7.979zm4.837-3.107c.024.174.038.362.038.563 0 .556-.107 1.181-.428 1.962l-1.718 4.838c1.672-.95 2.797-2.714 2.797-4.735 0-.953-.25-1.848-.689-2.628zM7.5 0a7.5 7.5 0 1 0 0 15 7.5 7.5 0 0 0 0-15zm0 14.063A6.563 6.563 0 1 1 7.5.937a6.563 6.563 0 0 1 0 13.126z"/></symbol></svg>